<?xml version="1.0" encoding="UTF-8" standalone="no"?>
<!-- Created with Inkscape (http://www.inkscape.org/) -->

<svg
   xmlns:dc="http://purl.org/dc/elements/1.1/"
   xmlns:cc="http://creativecommons.org/ns#"
   xmlns:rdf="http://www.w3.org/1999/02/22-rdf-syntax-ns#"
   xmlns:svg="http://www.w3.org/2000/svg"
   xmlns="http://www.w3.org/2000/svg"
   xmlns:sodipodi="http://sodipodi.sourceforge.net/DTD/sodipodi-0.dtd"
   xmlns:inkscape="http://www.inkscape.org/namespaces/inkscape"
   width="74.148079mm"
   height="74.148079mm"
   viewBox="0 0 262.72941 262.72941"
   id="svg2"
   version="1.1"
   inkscape:version="0.91 r13725"
   sodipodi:docname="timer2.svg">
  <defs
     id="defs4" />
  <sodipodi:namedview
     id="base"
     pagecolor="#ffffff"
     bordercolor="#666666"
     borderopacity="1.0"
     inkscape:pageopacity="0.0"
     inkscape:pageshadow="2"
     inkscape:zoom="0.49497475"
     inkscape:cx="169.38733"
     inkscape:cy="-197.00925"
     inkscape:document-units="px"
     inkscape:current-layer="layer1"
     showgrid="false"
     showguides="true"
     inkscape:guide-bbox="true"
     inkscape:window-width="1360"
     inkscape:window-height="705"
     inkscape:window-x="-8"
     inkscape:window-y="-8"
     inkscape:window-maximized="1"
     fit-margin-top="0"
     fit-margin-left="0"
     fit-margin-right="0"
     fit-margin-bottom="0" />
  <metadata
     id="metadata7">
    <rdf:RDF>
      <cc:Work
         rdf:about="">
        <dc:format>image/svg+xml</dc:format>
        <dc:type
           rdf:resource="http://purl.org/dc/dcmitype/StillImage" />
        <dc:title></dc:title>
      </cc:Work>
    </rdf:RDF>
  </metadata>
  <g
     inkscape:label="Layer 1"
     inkscape:groupmode="layer"
     id="layer1"
     transform="translate(-8.6353025,-19.568926)">
    <circle
       style="opacity:1;fill:#ffff00;fill-opacity:1;stroke:none;stroke-width:8;stroke-linecap:butt;stroke-linejoin:miter;stroke-miterlimit:4;stroke-dasharray:none;stroke-dashoffset:0;stroke-opacity:1"
       id="path4196"
       cx="145.71429"
       cy="148.07649"
       r="59.675995" />
    <path
       style="opacity:1;fill:#806600;fill-opacity:1;stroke:none;stroke-width:8;stroke-linecap:butt;stroke-linejoin:miter;stroke-miterlimit:4;stroke-dasharray:none;stroke-dashoffset:0;stroke-opacity:1"
       d="m 193.40235,58.584216 c -0.76188,0.008 -1.88805,0.4023 -2.47428,1.0194 -0.51456,0.54164 -0.93532,1.08941 -0.93532,1.21713 0,0.30903 -2.57864,3.01414 -2.87323,3.01414 -0.29788,0 -1.31977,1.07294 -1.31977,1.38587 0,0.31288 -3.34083,3.83 -3.63807,3.83 -0.51388,0 -1.31687,1.20106 -1.31687,1.9698 0,0.53137 2.36642,3.31783 6.67018,7.85425 3.66858,3.86691 6.67017,7.30899 6.67017,7.64899 0,0.96028 -1.64497,2.46545 -2.76247,2.57691 a 75.158982,75.158982 0 0 0 -5.81661,-4.2475 c -0.1063,-0.10721 -0.21409,-0.21601 -0.2824,-0.29631 -0.37221,-0.43759 -0.60583,-0.56292 -0.6564,-0.3601 a 75.158982,75.158982 0 0 0 -1.37138,-0.78687 c -0.38106,-0.28732 -0.82089,-0.56606 -1.21192,-0.74571 -0.6813,-0.31302 -1.23917,-0.67852 -1.23917,-0.81181 0,-0.13328 -0.68592,-0.56802 -1.52446,-0.96605 -0.83853,-0.39803 -1.52446,-0.8769 -1.52446,-1.06405 0,-0.18716 -0.42863,-0.3398 -0.95272,-0.3398 -0.52408,0 -0.95329,-0.18059 -0.95329,-0.40127 0,-0.22067 -0.34268,-0.40126 -0.76194,-0.40126 -0.41927,0 -0.76252,-0.1806 -0.76252,-0.40127 0,-0.22067 -0.21155,-0.40126 -0.47027,-0.40126 0.0311,0.24821 0.0648,0.48941 0.0974,0.73353 A 75.158982,75.158982 0 0 0 144.1632,72.341486 75.158982,75.158982 0 0 0 69.004135,147.50054 75.158982,75.158982 0 0 0 144.1632,222.6596 75.158982,75.158982 0 0 0 219.32167,147.50054 75.158982,75.158982 0 0 0 200.50857,97.858386 c 0.81861,-0.95887 2.21635,-2.30421 2.52298,-2.31655 0.14852,-0.006 3.36639,3.23913 7.15147,7.211194 3.78507,3.97205 7.09417,7.2159 7.35325,7.20886 0.67548,-0.0183 1.83977,-1.02085 1.54534,-1.33078 -0.1365,-0.14368 0.009,-0.26094 0.32472,-0.26094 0.31529,0 1.28644,-0.76754 2.15825,-1.70538 0.8718,-0.93785 1.97162,-2.08566 2.44413,-2.55082 1.66801,-1.6421 4.09906,-4.597224 4.09906,-4.982774 0,-0.21477 0.17134,-0.39025 0.38097,-0.39025 0.20963,0 0.38155,-0.95328 0.38155,-2.11824 0,-1.65786 -0.16587,-2.24369 -0.76252,-2.69637 -0.41927,-0.31811 -0.76194,-0.8999 -0.76194,-1.29252 0,-0.39262 -0.13478,-0.71381 -0.29921,-0.71381 -0.16444,0 -0.62398,-0.58694 -1.02114,-1.30412 -0.39716,-0.71718 -0.99247,-1.57443 -1.32325,-1.90543 -0.33078,-0.331 -0.84398,-1.09854 -1.14001,-1.70538 -0.29604,-0.60684 -0.68052,-1.10348 -0.85472,-1.10348 -0.17422,0 -0.31719,-0.18854 -0.31719,-0.41924 0,-0.2307 -0.38536,-0.83607 -0.85704,-1.34528 -1.56788,-1.69265 -2.57285,-3.05125 -2.57285,-3.47803 0,-0.23201 -0.17192,-0.31034 -0.38155,-0.17396 -0.20964,0.13639 -0.38097,0.0666 -0.38097,-0.1554 0,-0.41093 -6.69029,-7.66812 -7.06913,-7.66812 -0.38497,0 -2.07823,-1.96594 -2.07823,-2.41281 0,-0.24373 -0.17192,-0.33122 -0.38155,-0.19484 -0.20963,0.13638 -0.38097,0.0803 -0.38097,-0.12409 0,-0.20437 -0.71623,-0.87051 -1.59173,-1.48039 -0.8755,-0.60988 -1.98217,-1.49116 -2.4592,-1.95878 -1.42549,-1.39741 -1.99857,-1.85324 -2.32873,-1.85324 -0.17221,0 -0.56007,-0.3612 -0.86226,-0.80253 -0.30219,-0.44135 -0.73625,-0.80254 -0.96489,-0.80254 -0.22864,0 -0.7487,-0.31604 -1.15509,-0.70221 -1.07568,-1.02218 -3.89779,-2.9086 -4.3513,-2.9086 -0.21413,0 -0.38967,-0.1806 -0.38967,-0.40127 0,-0.30724 -0.32569,-0.44115 -0.78281,-0.43605 z m -49.23914,35.81181 a 53.104272,53.104272 0 0 1 53.10393,53.104514 53.104272,53.104272 0 0 1 -53.10393,53.10393 53.104272,53.104272 0 0 1 -53.104525,-53.10393 53.104272,53.104272 0 0 1 53.104525,-53.104514 z m 0.11365,7.955734 c -0.61653,0 -1.22674,0.1806 -1.3563,0.40127 -0.12956,0.22067 -0.67138,0.40126 -1.2038,0.40126 -0.87856,0 -1.49757,0.53283 -3.46527,2.9834 -0.3695,0.46018 -0.47665,5.95543 -0.47665,24.48301 l 0,23.88924 21.72577,0 c 14.22965,0 21.72575,-0.13849 21.72575,-0.40127 0,-0.22067 0.51459,-0.40126 1.1435,-0.40126 0.62889,0 1.14349,-0.16822 1.14349,-0.37402 0,-0.2058 0.34267,-0.4885 0.76194,-0.62857 0.41926,-0.14008 0.76252,-0.51365 0.76252,-0.82979 0,-0.31613 0.1369,-0.57464 0.30443,-0.57464 0.52578,0 1.22003,-2.58457 1.22003,-4.54207 0,-1.03252 -0.17134,-1.8776 -0.38097,-1.8776 -0.20963,0 -0.38155,-0.27884 -0.38155,-0.61988 0,-0.8873 -1.59172,-2.4414 -3.24724,-3.16954 -1.20206,-0.5287 -3.70338,-0.62393 -16.35216,-0.62393 -11.10613,0 -15.04999,-0.1232 -15.39017,-0.48128 -0.34088,-0.35883 -0.45751,-4.67657 -0.45751,-16.95175 l 0,-16.47045 -1.48039,-1.7048 c -1.01948,-1.17402 -1.79073,-1.7048 -2.47718,-1.7048 -0.54829,0 -0.99737,-0.18059 -0.99737,-0.40126 0,-0.22067 -0.50434,-0.40127 -1.12087,-0.40127 z"
       id="circle4160"
       inkscape:connector-curvature="0" />
  </g>
</svg>
